<?xml version="1.0" encoding="UTF-8" standalone="no"?>
<svg
   xmlns:dc="http://purl.org/dc/elements/1.1/"
   xmlns:cc="http://creativecommons.org/ns#"
   xmlns:rdf="http://www.w3.org/1999/02/22-rdf-syntax-ns#"
   xmlns:svg="http://www.w3.org/2000/svg"
   xmlns="http://www.w3.org/2000/svg"
   viewBox="0 0 478.35001 194.0625"
   height="194.0625"
   width="478.35001"
   xml:space="preserve"
   version="1.1"
   id="svg2"><metadata
     id="metadata8"><rdf:RDF><cc:Work
         rdf:about=""><dc:format>image/svg+xml</dc:format><dc:type
           rdf:resource="http://purl.org/dc/dcmitype/StillImage" /><dc:title></dc:title></cc:Work></rdf:RDF></metadata><defs
     id="defs6" /><g
     transform="matrix(1.25,0,0,-1.25,0,194.0625)"
     id="g10"><g
       transform="scale(0.1,0.1)"
       id="g12"><path
         id="path14"
         style="fill:#ffffff;fill-opacity:1;fill-rule:nonzero;stroke:none"
         d="m 3057,0 c 424.45,0 769.77,345.32 769.77,769.773 0,424.467 -345.32,769.787 -769.77,769.787 -137.09,0 -271.7,-36.49 -389.25,-105.53 -114.1,-67 -209.63,-162.85 -276.29,-277.17 C 2323.26,1039.84 2287.23,905.996 2287.23,769.773 2287.23,345.32 2632.55,0 3057,0" /><path
         id="path16"
         style="fill:#ec008c;fill-opacity:1;fill-rule:nonzero;stroke:none"
         d="m 201.152,1421.77 -1.011,0 -41.043,-121.61 82.59,0 -40.536,121.61 z m -69.414,-197.62 -26.343,-66.38 -105.395,0 146.934,382.05 108.437,0 143.902,-382.05 -105.898,0 -24.828,66.38 -136.809,0" /><path
         id="path18"
         style="fill:#ec008c;fill-opacity:1;fill-rule:nonzero;stroke:none"
         d="m 539.453,1389.84 11.149,0 c 26.347,0 53.707,4.56 53.707,37 0,34.96 -30.907,36.98 -57.766,36.98 l -7.09,0 0,-73.98 z m 0,-156.06 12.664,0 c 29.387,0 79.043,-1.51 79.043,40.54 0,46.11 -49.148,41.55 -81.574,41.55 l -10.133,0 0,-82.09 z m -99.308,-76.01 0,382.05 141.867,0 c 67.898,0 113.5,-26.34 113.5,-99.3 0,-34.46 -11.149,-62.33 -42.055,-78.04 l 0,-1.02 c 54.727,-7.08 78.031,-44.07 78.031,-97.28 0,-80.05 -68.402,-106.41 -138.328,-106.41 l -153.015,0" /><path
         id="path20"
         style="fill:#ec008c;fill-opacity:1;fill-rule:nonzero;stroke:none"
         d="m 772.945,1157.77 99.3125,0 0,382.051 -99.3125,0 0,-382.051 z" /><path
         id="path22"
         style="fill:#ec008c;fill-opacity:1;fill-rule:nonzero;stroke:none"
         d="m 1210.21,1411.63 c -20.28,27.36 -53.21,42.06 -87.16,42.06 -60.8,0 -101.84,-46.62 -101.84,-105.91 0,-60.29 41.54,-103.86 103.36,-103.86 32.43,0 64.85,15.7 85.64,40.53 l 0,-119.07 c -32.94,-10.13 -56.76,-17.74 -87.67,-17.74 -53.2,0 -103.87,20.27 -143.392,56.25 -42.046,38 -61.304,87.66 -61.304,144.4 0,52.2 19.761,102.35 56.242,139.85 37.494,38.51 91.704,61.82 145.414,61.82 31.93,0 61.31,-7.09 90.71,-19.25 l 0,-119.08" /><path
         id="path24"
         style="fill:#ec008c;fill-opacity:1;fill-rule:nonzero;stroke:none"
         d="m 1355.57,1355.39 c 0,-65.87 48.64,-114.01 107.92,-114.01 59.29,0 107.93,48.14 107.93,114.01 0,52.7 -48.64,100.83 -107.93,100.83 -59.28,0 -107.92,-48.13 -107.92,-100.83 z m 319.22,0.51 c 0,-123.63 -88.68,-210.79 -211.3,-210.79 -122.62,0 -211.29,87.16 -211.29,210.79 0,115.53 101.34,196.6 211.29,196.6 109.96,0 211.3,-81.07 211.3,-196.6" /><path
         id="path26"
         style="fill:#ec008c;fill-opacity:1;fill-rule:nonzero;stroke:none"
         d="m 1810.08,1368.56 9.63,0 c 32.43,0 68.91,6.08 68.91,47.63 0,41.56 -36.48,47.63 -68.91,47.63 l -9.63,0 0,-95.26 z m 218.4,-210.79 -123.65,0 -93.74,146.95 -1.01,0 0,-146.95 -99.31,0 0,382.05 148.46,0 c 75.5,0 132.75,-35.96 132.75,-117.55 0,-52.69 -29.38,-98.29 -83.6,-107.92 l 120.1,-156.58" /><path
         id="path28"
         style="fill:#231f20;fill-opacity:1;fill-rule:nonzero;stroke:none"
         d="m 137.945,603.145 67.832,0 c 18.286,0 71.633,0 71.633,60.937 0,54.934 -48.777,54.934 -71.633,54.934 l -67.832,0 0,-115.871 z m 0,251.496 51.059,0 c 19.812,0 60.973,0 60.973,50.632 0,48.067 -38.868,48.067 -60.973,48.067 l -51.059,0 0,-98.699 z M 0,1095.82 l 173.766,0 c 95.261,0 139.464,-10.29 180.621,-61.79 25.156,-29.19 33.539,-67.807 33.539,-104.714 0,-48.933 -19.821,-98.718 -65.547,-127.898 90.691,-36.047 92.976,-121.027 92.976,-147.641 0,-50.632 -17.527,-106.437 -51.824,-138.187 -51.82,-48.93 -89.172,-54.942 -184.433,-54.942 L 0,460.648 0,1095.82" /><path
         id="path30"
         style="fill:#231f20;fill-opacity:1;fill-rule:nonzero;stroke:none"
         d="m 436.891,460.648 144.043,0 0,635.172 -144.043,0 0,-635.172 z" /><path
         id="path32"
         style="fill:#231f20;fill-opacity:1;fill-rule:nonzero;stroke:none"
         d="m 618.621,1095.82 115.074,0 201.91,-399.121 1.407,1.707 -5.645,397.414 127.783,0 0,-635.172 -115.787,0 -199.078,386.254 -1.41,-0.847 3.527,-385.407 -127.781,0 0,635.172" /><path
         id="path34"
         style="fill:#231f20;fill-opacity:1;fill-rule:nonzero;stroke:none"
         d="m 1084.36,567.09 194.34,386.25 -194.34,0 0,142.48 355.9,0 0,-131.316 -179.85,-361.359 179.85,0 0,-142.497 -355.9,0 0,106.442" /><path
         id="path36"
         style="fill:#231f20;fill-opacity:1;fill-rule:nonzero;stroke:none"
         d="m 1472.92,1095.82 373.32,0 0,-142.48 -235.38,0 0,-98.699 195.71,0 0,-142.493 -195.71,0 0,-109.003 235.38,0 0,-142.497 -373.32,0 0,635.172" /><path
         id="path38"
         style="fill:#231f20;fill-opacity:1;fill-rule:nonzero;stroke:none"
         d="m 1882.91,1095.82 144.04,0 0,-492.675 166.9,0 0,-142.497 -310.94,0 0,635.172" /><path
         id="path40"
         style="fill:#231f20;fill-opacity:1;fill-rule:nonzero;stroke:none"
         d="m 2134.64,1026.84 c 12.36,0 31.52,-2.05 31.52,15.87 0,13.59 -11.94,15.25 -22.87,15.25 l -25.13,0 0,-31.12 16.48,0 z m 41.2,-49.027 -12.77,0 -25.14,40.587 -19.77,0 0,-40.587 -10.73,0 0,87.977 38.33,0 c 7.41,0 14.85,-0.41 21.43,-4.33 6.58,-3.72 9.89,-11.54 9.89,-18.96 0,-17.3 -12.16,-23.69 -27.81,-24.1 l 26.57,-40.587 z m 29.89,44.077 c 0,38.12 -30.92,69.03 -69.04,69.03 -38.32,0 -69.21,-30.91 -69.21,-69.03 0,-38.523 30.89,-69.429 69.21,-69.429 38.12,0 69.04,30.906 69.04,69.429 z m -147.96,0 c 0,43.28 35.24,78.51 78.92,78.51 43.47,0 78.5,-35.23 78.5,-78.51 0,-43.667 -35.03,-78.902 -78.5,-78.902 -43.68,0 -78.92,35.235 -78.92,78.902" /><path
         id="path42"
         style="fill:#231f20;fill-opacity:1;fill-rule:nonzero;stroke:none"
         d="m 3196.45,767.313 c -12.92,13.273 -29.95,25.187 -52.38,34.105 45.74,29.172 65.55,78.953 65.55,127.895 0,36.898 -8.38,75.527 -33.53,104.717 -41.16,51.49 -85.36,61.78 -180.63,61.78 l -635.87,0 c -13.83,-29.59 -25.72,-60.02 -35.65,-91.09 l 696.09,0 c 36.24,0 99.98,0 99.98,-78.818 0,-83.031 -67.48,-83.031 -99.98,-83.031 l -729.29,0 c -2.3,-24.234 -3.51,-48.625 -3.51,-73.098 0,-6.16 0.32,-12.253 0.47,-18.386 l 736.38,0 c 39.38,0 123.37,0 123.37,-94.61 0,-104.918 -91.85,-104.918 -123.37,-104.918 l -705.24,0 c 9.25,-31.281 20.42,-61.711 33.41,-91.211 l 648.54,0 c 95.28,0 132.62,6 184.44,54.942 34.29,31.75 51.83,87.555 51.83,138.18 0,19.57 -1.23,70.703 -37.96,110.734 -0.86,0.934 -1.75,1.883 -2.65,2.809" /><path
         id="path44"
         style="fill:#ec008c;fill-opacity:1;fill-rule:nonzero;stroke:none"
         d="m 3057,1539.56 c -137.09,0 -271.7,-36.49 -389.25,-105.53 -113.79,-66.82 -209.13,-162.35 -275.75,-276.28 l 603.99,-0.11 c 63.75,0 96.88,-3.55 129.16,-13.89 39.29,-12.6 70.76,-34.76 98.94,-69.67 31.43,-36.9 48.03,-86.932 48.03,-144.767 0,-86.7 -39.15,-121.668 -42.89,-127.719 18.06,-18.235 70.33,-65.832 70.33,-147.824 0,-33.04 -5.78,-66.653 -16.71,-97.215 -12.43,-34.766 -31.36,-64.657 -54.75,-86.453 0.02,0.019 0.03,0.027 0.04,0.039 -0.01,-0.02 -0.03,-0.032 -0.05,-0.051 l -0.38,-0.352 c 0.02,0.024 0.05,0.051 0.08,0.071 -68.55,-64.579 -124.45,-71.219 -227,-71.219 l -617.89,0 C 2514.15,161.18 2767.07,0 3057,0 c 424.45,0 769.77,345.32 769.77,769.773 0,424.467 -345.32,769.787 -769.77,769.787" /></g></g></svg>