<?xml version="1.0" encoding="UTF-8" standalone="no"?>
<svg
   xmlns:dc="http://purl.org/dc/elements/1.1/"
   xmlns:cc="http://creativecommons.org/ns#"
   xmlns:rdf="http://www.w3.org/1999/02/22-rdf-syntax-ns#"
   xmlns:svg="http://www.w3.org/2000/svg"
   xmlns="http://www.w3.org/2000/svg"
   viewBox="0 0 554.77436 66.410004"
   height="66.410004"
   width="554.77435"
   xml:space="preserve"
   version="1.1"
   id="svg2"><metadata
     id="metadata8"><rdf:RDF><cc:Work
         rdf:about=""><dc:format>image/svg+xml</dc:format><dc:type
           rdf:resource="http://purl.org/dc/dcmitype/StillImage" /><dc:title></dc:title></cc:Work></rdf:RDF></metadata><defs
     id="defs6" /><g
     transform="matrix(1.25,0,0,-1.25,-14.569375,220.18375)"
     id="g10"><g
       transform="scale(0.1,0.1)"
       id="g12"><path
         id="path22"
         style="fill:#1c60b5;fill-opacity:1;fill-rule:evenodd;stroke:none"
         d="m 3989.18,1389.64 143.38,212.39 131.61,0 -143.39,-212.39 -131.6,0 z m 434.39,212.39 131.18,0 -143.38,-212.39 -131.17,0 55.7,82.52 -155.06,0 67.68,41.7 115.53,0 59.52,88.17 z m -803.8,-66.02 c -6.84,-10.13 -11.17,-19.11 -12.96,-26.93 -1.81,-7.82 -1.53,-14.48 0.84,-19.98 2.37,-5.5 6.63,-9.7 12.78,-12.59 6.15,-2.9 13.71,-4.35 22.69,-4.35 l 223.25,0 c 5.21,0 7.85,-1.88 7.92,-5.64 0.07,-3.77 -1.37,-7.83 -4.3,-12.17 -2.93,-4.34 -6.97,-8.39 -12.12,-12.16 -5.16,-3.77 -10.47,-5.65 -15.98,-5.65 l -243.67,0 -73.79,-46.9 366.59,0 c 18.53,0 37.54,5.64 57.04,16.93 19.5,11.3 35.59,26.36 48.31,45.18 12.7,18.82 16.93,33.88 12.67,45.17 -4.25,11.29 -15.63,16.94 -34.17,16.94 l -215.87,0 c -6.66,0 -10.35,2.03 -11.09,6.08 -0.74,4.05 0.41,8.54 3.45,13.47 3.02,4.92 7.58,9.4 13.64,13.46 6.07,4.05 12.72,6.08 19.96,6.08 l 201.97,0 79.61,49.08 -334.88,0 c -21.13,0 -41.6,-5.86 -61.39,-17.59 -19.79,-11.73 -36.62,-27.87 -50.5,-48.43 z m -369.8,66.02 379.62,0 -143.38,-212.39 -133.35,0 55.71,82.52 -162.44,0 68.11,41.7 122.48,0 26.4,39.09 -147.69,0 c -13.31,0 -25.25,-7.82 -35.81,-23.46 l -94.41,-139.85 -132.92,0 107.91,159.83 c 9.77,14.49 23.41,26.86 40.92,37.14 17.51,10.28 33.79,15.42 48.85,15.42 z m -688.49,-212.39 143.38,212.39 125.1,0 37.37,-100.33 171.55,100.33 122.05,0 -143.38,-212.39 -129.87,0 86.5,128.13 -158.45,-92.52 -35.27,92.52 -86.5,-128.13 -132.48,0 z m -1127.56,0 143.38,212.39 125.1,0 37.38,-100.33 171.54,100.33 122.05,0 -143.38,-212.39 -129.87,0 86.5,128.13 -158.45,-92.52 -35.27,92.52 -86.5,-128.13 -132.48,0 z m -17.07,0.43 -47.53,82.09 21.72,0 c 9.26,0 19.1,1.59 29.5,4.78 10.4,3.18 20.55,7.6 30.45,13.25 9.89,5.65 19.26,12.45 28.11,20.41 8.85,7.96 16.4,16.58 22.66,25.84 6.25,9.27 10.31,17.96 12.16,26.07 1.85,8.1 1.7,15.05 -0.47,20.84 -2.18,5.79 -6.19,10.36 -12.05,13.68 -5.86,3.33 -13.42,5 -22.69,5 l -358.77,0 -143.381,-212.39 132.041,0 110.25,163.31 121.61,0 c 8.4,0 13.26,-2.03 14.58,-6.08 1.31,-4.06 0.32,-8.54 -3.01,-13.46 -3.32,-4.93 -8.46,-9.42 -15.39,-13.47 -6.93,-4.05 -14.46,-6.08 -22.56,-6.08 l -96.43,0 64.11,-123.79 135.09,0 z m -711.276,211.96 379.616,0 -143.381,-212.39 -133.34,0 55.707,82.52 -162.446,0 68.114,41.7 122.48,0 26.391,39.09 -147.676,0 c -13.32,0 -25.258,-7.82 -35.812,-23.46 l -94.414,-139.85 -132.915,0 107.907,159.83 c 9.769,14.49 23.414,26.86 40.925,37.14 17.504,10.28 33.79,15.42 48.844,15.42 z m -401.336,0 333.141,0 -76.133,-49.08 -201.101,0 -110.247,-163.31 -133.343,0 111.57,165.91 c 8.992,13.32 20.527,24.4 34.602,33.23 14.058,8.83 27.902,13.25 41.511,13.25 z m 107.778,-129.87 67.246,41.7 -98.598,0 -67.242,-41.7 98.594,0 z m 1830.244,181 268.01,1.97 -51.82,-44.79 -175.43,0 -122.82,-142.46 -116.33,0 124.41,144.74 c 10.02,11.62 21.89,21.28 35.6,28.98 13.71,7.7 26.49,11.47 38.38,11.56 z m 74.79,-128.03 35.01,38.34 -86.01,0 -35.01,-38.34 86.01,0 z m -234.73,-177.98 137.69,160.56 94.57,0 14.4,-75.85 143.53,75.85 92.26,0 -137.7,-160.56 -98.17,0 83.07,96.86 -132.54,-69.94 -13.9,69.94 -83.07,-96.86 -100.14,0 z m 220.23,414.32 c 146.68,0 265.63,-118.95 265.63,-265.64 0,-146.68 -118.95,-265.64 -265.63,-265.64 -146.68,0 -265.63,118.96 -265.63,265.64 0,146.69 118.95,265.64 265.63,265.64" /></g></g></svg>