
<svg
   version="1.1"
   id="formula-logo"
   viewBox="0 0 1000 328"
   width="1000"
   height="328">
    <path
       id="formula-logo-path"
       d="M 520.2738,916.14535 C 435.5853,909.17025 362.8049,847.1197 342.2695,764.38386 315.3592,655.96409 381.1158,546.80682 489.6042,519.80516 c 17.9674,-4.47189 23.5877,-5.06385 48.0782,-5.06385 24.4905,0 30.1109,0.59196 48.0782,5.06385 C 692.6787,546.416 757.979,652.24405 734.0475,760.12449 712.446,857.50141 620.7552,924.42119 520.2738,916.14535 Z m 43.4847,-66.87123 c 35.4645,-6.87405 67.7024,-28.45561 87.4346,-58.53281 52.3322,-79.76821 10.8194,-184.76557 -82.3436,-208.26976 -15.9043,-4.01252 -46.4298,-4.01252 -62.3342,0 -62.9137,15.87258 -105.1263,69.44698 -105.0065,133.26976 0.1608,85.62228 78.1753,149.82888 162.2497,133.53281 z m 1166.4239,65.83504 C 1595.6767,898.21609 1506.548,766.90371 1540.273,635.31776 c 39.5121,-154.16584 225.0941,-218.9029 352.6657,-123.02132 72.3264,54.35982 105.0208,147.20468 82.7909,235.10808 -22.4245,88.6731 -97.428,155.08327 -189.0472,167.38761 -11.6211,1.5607 -45.1018,1.74857 -56.5,0.31703 z m 54.8713,-65.94353 c 64.124,-10.38704 115.5562,-60.69198 129.7687,-126.92432 3.2773,-15.27299 3.2756,-45.74213 0,-61 -13.8972,-64.66546 -61.1532,-112.195 -125.4888,-126.21523 -14.7839,-3.22175 -48.5568,-3.23756 -62.9063,-0.0294 -121.0117,27.05452 -169.1861,168.03262 -89.3422,261.45232 36.0044,42.1263 91.4364,61.87455 147.972,52.71668 z M 41.4594,864.28051 c -3.123,-2.45652 -28.777,-58.34131 -28.777,-62.68785 0,-1.633 0.5625,-3.72108 1.25,-4.64017 1.4501,-1.93856 294.661,-101.71118 298.9079,-101.71118 3.9377,0 3.9632,0.13113 4.3272,22.27806 0.1828,11.12207 0.8383,23.06584 1.4567,26.54172 1.4528,8.16587 1.6149,13.02806 0.4716,14.14896 -0.5024,0.49256 -36.9134,11.52889 -80.9134,24.52518 -77.12,22.77895 -82.744,24.59536 -81.1351,26.20426 0.4023,0.40233 39.6718,-0.91366 87.2656,-2.92441 59.1956,-2.50092 87.2189,-3.34235 88.7018,-2.66338 1.3113,0.60042 4.3406,5.21467 7.6677,11.67937 6.1081,11.86843 16.8144,28.38537 24.7829,38.23353 5.22,6.45131 6.2685,9.52528 4.0171,11.77671 -0.9235,0.92347 -38.57,1.2 -163.3651,1.2 -159.5703,0 -162.2051,-0.0314 -164.6579,-1.9608 z m 664.4241,0.76193 c -2.2699,-2.26997 -1.1788,-5.31504 4.4078,-12.30113 8.531,-10.66812 17.6473,-24.79457 24.2099,-37.51551 3.7466,-7.26227 6.7992,-11.93863 8.303,-12.71975 2.8933,-1.50278 791.1593,-1.86878 795.1035,-0.36917 1.5414,0.58602 4.7085,4.91462 9.1629,12.5232 6.7885,11.59559 20.3644,30.3282 29.2667,40.38359 4.1817,4.72327 4.5907,5.59698 3.7456,8 l -0.9487,2.69764 -436.0247,0.25113 c -338.3053,0.19486 -436.294,-0.0181 -437.226,-0.95 z m 41.0326,-223.63556 c -0.6965,-0.4421 -2.7725,-4.37271 -4.6133,-8.73469 -4.8893,-11.58591 -12.7479,-26.79311 -18.5468,-35.88996 -5.3933,-8.46056 -6.2104,-11.86216 -3.2323,-13.45595 1.0126,-0.54198 98.305,-28.71331 216.2051,-62.60298 117.9002,-33.88966 214.7216,-61.83862 215.1588,-62.1088 0.4371,-0.27017 0.7948,-30.51454 0.7948,-67.2097 0,-70.82376 0.022,-71.16349 4.5753,-71.16349 1.5856,0 459.9562,160.42064 462.4247,161.83951 0.825,0.4742 1.638,2.23828 1.8066,3.92018 0.2818,2.81183 -0.4426,3.6155 -9,9.98397 -11.5332,8.58301 -27.7411,23.10568 -34.0837,30.53964 -2.6274,3.07952 -5.6216,5.86717 -6.6538,6.19477 -1.1469,0.36403 -69.5836,-23.13866 -175.9967,-60.44121 -95.766,-33.57027 -174.7361,-61.03686 -175.4892,-61.03686 -2.4472,0 -2.5832,2.57742 -2.5832,48.95934 0,35.43775 -0.2827,46.02147 -1.25,46.79364 -0.9892,0.78968 -466.2983,135.28949 -467.8411,135.23171 -0.2249,-0.008 -0.9787,-0.37703 -1.6752,-0.81912 z M 1925.4397,514.59367 c -9.9139,-9.18197 -20.8094,-17.98244 -29.1353,-23.53306 -6.8521,-4.56804 -8.622,-6.40279 -8.622,-8.93783 0,-0.95496 8.8944,-12.00645 19.7654,-24.55887 98.4,-113.61993 127.3704,-147.58676 126.5647,-148.39252 -0.5509,-0.55086 -9.8234,2.03505 -23.3716,6.51787 -12.3522,4.08706 -66.896,22.10272 -121.2085,40.03482 l -98.75,32.6038 0,28.34593 c 0,36.01167 1.7167,33.03744 -18.25,31.619 -10.2296,-0.72671 -19.2247,-0.73004 -29.3508,-0.0109 -10.9405,0.77701 -14.9515,0.74585 -16,-0.12428 -1.167,-0.96851 -1.3992,-10.02396 -1.3992,-54.56023 l 0,-53.399 2.25,-0.9729 c 5.5113,-2.38309 455.3375,-134.98419 457.9105,-134.98419 4.3399,0 5.9211,4.04573 3.0821,7.88579 -5.1909,7.02098 -248.6905,306.80654 -250.4676,308.36421 -3.1282,2.74191 -4.227,2.24413 -13.0177,-5.89764 z m -1048.5973,0.80767 c -1.1365,-1.13655 -2.8155,-5.66206 -4.0474,-10.9092 -23.8082,-101.4098 71.7029,-189.00127 170.2765,-156.15751 37.9085,12.63074 69.3719,43.60291 82.5249,81.23636 3.7805,10.81666 4.0063,15.32093 0.836,16.67222 -5.9926,2.55424 -48.9685,14.06353 -50.5908,13.54862 -1.2638,-0.4011 -2.7152,-3.2113 -4.5553,-8.8196 -13.4582,-41.01914 -56.6174,-61.16712 -97.9223,-45.71297 -12.9023,4.82736 -28.8537,18.533 -35.2522,30.28905 -4.3157,7.92941 -5.5365,7.693 39.7266,7.693 37.3109,0 38.8127,0.073 39.8088,1.93426 1.5277,2.85456 1.3465,29.27484 -0.2148,31.32408 -0.8049,1.05644 -25.1064,8.43968 -68.25,20.73563 -36.85,10.50227 -67.7645,19.32303 -68.6988,19.60169 -0.9344,0.27865 -2.5729,-0.36738 -3.6412,-1.43563 z"
      />
</svg>
