<?xml version="1.0" encoding="UTF-8" standalone="no"?>
<svg
   xmlns:dc="http://purl.org/dc/elements/1.1/"
   xmlns:cc="http://creativecommons.org/ns#"
   xmlns:rdf="http://www.w3.org/1999/02/22-rdf-syntax-ns#"
   xmlns:svg="http://www.w3.org/2000/svg"
   xmlns="http://www.w3.org/2000/svg"
   viewBox="0 0 541.04999 437.27499"
   height="437.27499"
   width="541.04999"
   xml:space="preserve"
   version="1.1"
   id="svg2"><metadata
     id="metadata8"><rdf:RDF><cc:Work
         rdf:about=""><dc:format>image/svg+xml</dc:format><dc:type
           rdf:resource="http://purl.org/dc/dcmitype/StillImage" /><dc:title></dc:title></cc:Work></rdf:RDF></metadata><defs
     id="defs6" /><g
     transform="matrix(1.25,0,0,-1.25,0,437.275)"
     id="g10"><g
       transform="scale(0.1,0.1)"
       id="g12"><path
         id="path14"
         style="fill:#d71e3a;fill-opacity:1;fill-rule:nonzero;stroke:none"
         d="m 4298.14,3484.94 c -19.7,0 -399.71,-0.71 -483.56,-0.82 -14.25,0.63 -18,-2.37 -21.86,-9.8 -16.14,-27.4 -65,-110.3 -130.73,-221.98 l -513.83,0 c 75.4,132.79 122.51,215.72 123.41,217.29 4.77,8.24 2.27,14.47 -6,14.47 -7.54,0 -434.85,0 -508.49,0 -9.75,0.65 -12.28,-2.63 -14.77,-6.99 -0.67,-1.18 -53.1,-92.57 -128.96,-224.77 l -1992.62,0 c -65.386,0 -118.453,-53.07 -118.453,-118.45 l 0,-879.46 c -130.066,0 -214.281,0 -217.207,0 -13.5,0 -21.746,-7.61 -26.625,-17.9 -4.879,-10.28 -237.1052,-419.31 -242.4919,-429.3 -5.3828,-9.98 -5.3828,-16.45 6.6133,-16.45 4.1133,0 210.3436,0 479.7106,0 l 0,-1672.409 C 502.277,52.9922 555.344,0 620.73,0 l 3244.18,0 c 65.45,0 118.45,52.9922 118.45,118.371 l 0,2774.029 c 183.58,320.73 321.78,562.23 325.08,568.17 9.38,16.87 13.71,24.37 -10.3,24.37" /><path
         id="path16"
         style="fill:#ffffff;fill-opacity:1;fill-rule:nonzero;stroke:none"
         d="m 1622.58,989.469 -197.26,0 -260.55,-454.11 -662.649,0 0,-171.187 562.099,0 -111.615,-193.633 204.665,0 465.31,818.93" /><path
         id="path18"
         style="fill:#ffffff;fill-opacity:1;fill-rule:nonzero;stroke:none"
         d="m 2013.26,989.469 -193.54,0 c 0,0 -270.37,-462.289 -282.89,-483.86 -12.6,32.852 -80.92,29.75 -125.45,29.75 -21.72,-38.558 -93.06,-171.187 -93.06,-171.187 0,0 64.24,-0.402 80.46,0 54.57,1.148 45.84,-30.613 26.36,-63.313 -19.48,-32.679 -74.43,-130.32 -74.43,-130.32 l 193.54,0 469.01,818.93" /><path
         id="path20"
         style="fill:#ffffff;fill-opacity:1;fill-rule:nonzero;stroke:none"
         d="m 2291.89,989.469 -189.83,0 -476.35,-818.93 201.04,0 465.14,818.93" /><path
         id="path22"
         style="fill:#ffffff;fill-opacity:1;fill-rule:nonzero;stroke:none"
         d="m 2859.66,989.469 -201.04,0 -338.7,-573.207 0,528.527 -163.78,-282.891 -0.7,-147.546 c -9.19,24.109 -40.19,20.929 -73.81,21.007 -14.45,-25.73 -96.7,-171.187 -96.7,-171.187 12.14,0 49.24,0 96.7,0 65.7,0 78.22,-21.57 78.22,-58.59 0,-22.191 0,-135.043 0,-135.043 l 234.5,0 465.31,818.93" /><path
         id="path24"
         style="fill:#ffffff;fill-opacity:1;fill-rule:nonzero;stroke:none"
         d="m 2888.77,944.789 -167.5,-297.73 0,-133.489 c -13.22,21.332 -23.19,22.809 -70.72,21.789 -16.62,-26.109 -96.77,-171.187 -96.77,-171.187 12.28,0 49.08,-0.152 89.35,0 64.23,0.148 81.85,-10.52 81.85,-67.024 0,-43.968 0,-126.609 0,-126.609 l 163.79,0 0,774.25" /><path
         id="path26"
         style="fill:#ffffff;fill-opacity:1;fill-rule:nonzero;stroke:none"
         d="m 3361.37,797.082 c 18.24,27.758 35.94,21.18 35.94,21.18 l 586.21,0 0.04,174.918 -619.17,0 c -96.78,0 -116.17,-34.95 -145.16,-85.571 -28.99,-50.699 -130.38,-228.48 -158.06,-279.179 -27.59,-50.778 -10.44,-122.821 71.42,-122.821 81.85,0 231.8,0 231.8,0 0,0 -48.16,-85.718 -70.96,-126.597 -22.72,-40.891 -79.3,-38.883 -108.67,-38.883 -29.45,0 -234.35,0 -234.35,0 l 0,-169.59 339.31,0 c 111.69,0 145.23,89.352 145.23,89.352 0,0 103.19,187.211 141.3,254.757 62.76,111.454 45.67,161.551 -40.97,161.551 -75.74,0 -240.93,0 -240.93,0 l 67.02,120.883" /><path
         id="path28"
         style="fill:#ffffff;fill-opacity:1;fill-rule:nonzero;stroke:none"
         d="m 3271.57,3470.39 c 4.77,8.24 2.27,14.47 -6,14.47 -7.54,0 -434.85,0 -508.49,0 -9.75,0.65 -12.28,-2.63 -14.77,-6.99 -2.48,-4.36 -701.54,-1222.69 -701.54,-1222.69 0,0 -1742.204,0 -1755.7,0 -13.5,0 -21.746,-7.61 -26.625,-17.89 -4.879,-10.28 -237.1052,-419.31 -242.4919,-429.3 -5.3828,-9.99 -5.3828,-16.45 6.6133,-16.45 12,0 1746.0636,0 1746.0636,0 l -302.38,-524.14 554.36,0 c 0,0 1246.28,2194.86 1250.96,2202.99" /><path
         id="path30"
         style="fill:none;stroke:#d71e3a;stroke-width:25;stroke-linecap:butt;stroke-linejoin:miter;stroke-miterlimit:4;stroke-dasharray:none;stroke-opacity:1"
         d="m 3271.57,3470.39 c 4.77,8.24 2.27,14.47 -6,14.47 -7.54,0 -434.85,0 -508.49,0 -9.75,0.65 -12.28,-2.63 -14.77,-6.99 -2.48,-4.36 -701.54,-1222.69 -701.54,-1222.69 0,0 -1742.204,0 -1755.7,0 -13.5,0 -21.746,-7.61 -26.625,-17.89 -4.879,-10.28 -237.1052,-419.31 -242.4919,-429.3 -5.3828,-9.99 -5.3828,-16.45 6.6133,-16.45 12,0 1746.0636,0 1746.0636,0 l -302.38,-524.14 554.36,0 c 0,0 1246.28,2194.86 1250.96,2202.99 z" /><path
         id="path32"
         style="fill:#ffffff;fill-opacity:1;fill-rule:nonzero;stroke:none"
         d="m 4308.44,3461.32 c 9.38,16.88 13.71,24.38 -10.3,24.38 -19.7,0 -399.71,-0.71 -483.56,-0.82 -14.25,0.63 -18,-2.37 -21.86,-9.81 -66.2,-112.3 -681.4,-1156.29 -760.25,-1300.52 -41.49,98.8 -239.45,79.76 -339.76,80.63 -44.35,-73.2 -251.98,-463.64 -251.98,-463.64 0,0 114.36,1.65 218.01,0 100.03,-1.61 111.19,-104.99 71.35,-171.35 -39.86,-66.37 -201.6,-352.79 -201.6,-352.79 l 524.13,0 c 0,0 1245.83,2175.93 1255.82,2193.92" /><path
         id="path34"
         style="fill:none;stroke:#d71e3a;stroke-width:25;stroke-linecap:butt;stroke-linejoin:miter;stroke-miterlimit:4;stroke-dasharray:none;stroke-opacity:1"
         d="m 4308.44,3461.32 c 9.38,16.88 13.71,24.38 -10.3,24.38 -19.7,0 -399.71,-0.71 -483.56,-0.82 -14.25,0.63 -18,-2.37 -21.86,-9.81 -66.2,-112.3 -681.4,-1156.29 -760.25,-1300.52 -41.49,98.8 -239.45,79.76 -339.76,80.63 -44.35,-73.2 -251.98,-463.64 -251.98,-463.64 0,0 114.36,1.65 218.01,0 100.03,-1.61 111.19,-104.99 71.35,-171.35 -39.86,-66.37 -201.6,-352.79 -201.6,-352.79 l 524.13,0 c 0,0 1245.83,2175.93 1255.82,2193.92 z" /></g></g></svg>