<?xml version="1.0" encoding="UTF-8" standalone="no"?>
<svg
   xmlns:dc="http://purl.org/dc/elements/1.1/"
   xmlns:cc="http://creativecommons.org/ns#"
   xmlns:rdf="http://www.w3.org/1999/02/22-rdf-syntax-ns#"
   xmlns:svg="http://www.w3.org/2000/svg"
   xmlns="http://www.w3.org/2000/svg"
   viewBox="0 0 303.20001 82.862503"
   height="82.862503"
   width="303.20001"
   xml:space="preserve"
   version="1.1"
   id="svg2"><metadata
     id="metadata8"><rdf:RDF><cc:Work
         rdf:about=""><dc:format>image/svg+xml</dc:format><dc:type
           rdf:resource="http://purl.org/dc/dcmitype/StillImage" /><dc:title></dc:title></cc:Work></rdf:RDF></metadata><defs
     id="defs6" /><g
     transform="matrix(1.25,0,0,-1.25,0,82.8625)"
     id="g10"><g
       transform="scale(0.1,0.1)"
       id="g12"><path
         id="path14"
         style="fill:#ed1c24;fill-opacity:1;fill-rule:nonzero;stroke:none"
         d="m 0,0 2425.63,0 0,662.934 L 0,662.934 0,0 Z" /><path
         id="path16"
         style="fill:#ffffff;fill-opacity:1;fill-rule:nonzero;stroke:none"
         d="m 680.789,552.523 0,-442.191 -154.168,0 8.516,192.949 -83.836,-192.949 -102.793,0 -29.36,195.801 -49.722,-195.41 -158.238,0 129.339,441.8 167.657,0 26.086,-179.613 74.851,179.613 171.668,0" /><path
         id="path18"
         style="fill:#ffffff;fill-opacity:1;fill-rule:nonzero;stroke:none"
         d="m 1544.09,412.344 -69.19,2.832 -35.47,-304.453 -167.75,0 38.17,303.847 -63.72,-2.226 -107.02,140.375 419.63,0 -14.65,-140.375" /><path
         id="path20"
         style="fill:#ffffff;fill-opacity:1;fill-rule:nonzero;stroke:none"
         d="m 1758.22,552.719 -31.27,-274.555 c -0.97,-16.582 6.57,-33.164 21.31,-40.234 15.19,-5.684 34.12,-3.379 45.96,8.027 10.39,9.043 14.22,21.289 17.08,34.121 l 37.33,272.641 160.18,0 -34.57,-302.446 c -7.6,-43.125 -27.52,-83.906 -65.86,-111.406 -55.46,-40.1951 -129.35,-46.3475 -200.89,-36.445 -56.81,10.449 -121.7,47.422 -140.22,105.215 -8,20.82 -6.61,45.879 -6.61,68.633 l 33.18,276.449 164.38,0" /><path
         id="path22"
         style="fill:#ffffff;fill-opacity:1;fill-rule:nonzero;stroke:none"
         d="m 2183.11,250.469 131.66,0 -38.8,-139.746 -280.47,0 58.3,441.996 166.66,0 -37.35,-302.25" /><path
         id="path24"
         style="fill:#ffffff;fill-opacity:1;fill-rule:nonzero;stroke:none"
         d="m 1085.1,536.324 16.6,-12.793 98.03,-126.011 c 10.93,-21.27 11.38,-48.321 10.41,-73.946 -1.38,-84.687 -56.79,-163.789 -134.05,-199.316 -94.254,-44.5705 -220.27,-23.711 -294.137,49.219 -65.371,62.089 -78.652,166.757 -44.531,247.265 39.785,89.547 133.555,145.465 230.203,141.149 41.695,-0.911 81.945,-8.028 117.475,-25.567 z M 983.738,415.059 c -35.523,4.785 -69.168,-11.797 -87.156,-43.555 -15.156,-26.543 -18.965,-63.457 -2.859,-90.488 11.375,-22.696 35.078,-38.36 60.172,-40.723 32.668,-2.832 61.585,13.223 78.635,40.723 17.52,25.566 18.51,67.304 4.24,94.726 -9.47,20.86 -31.74,35.528 -53.032,39.317" /></g></g></svg>