<?xml version="1.0" encoding="UTF-8" standalone="no"?>
<svg
   xmlns:dc="http://purl.org/dc/elements/1.1/"
   xmlns:cc="http://creativecommons.org/ns#"
   xmlns:rdf="http://www.w3.org/1999/02/22-rdf-syntax-ns#"
   xmlns:svg="http://www.w3.org/2000/svg"
   xmlns="http://www.w3.org/2000/svg"
   viewBox="0 0 749.31512 227.0118"
   height="227.0118"
   width="749.31512"
   xml:space="preserve"
   version="1.1"
   id="svg2"><metadata
     id="metadata8"><rdf:RDF><cc:Work
         rdf:about=""><dc:format>image/svg+xml</dc:format><dc:type
           rdf:resource="http://purl.org/dc/dcmitype/StillImage" /><dc:title></dc:title></cc:Work></rdf:RDF></metadata><defs
     id="defs6" /><g
     transform="matrix(1.25,0,0,-1.25,-162.15307,496.1859)"
     id="g10"><g
       transform="scale(0.1,0.1)"
       id="g12"><path
         id="path14"
         style="fill:#333439;fill-opacity:1;fill-rule:nonzero;stroke:none"
         d="m 1297.2246,2153.3928 5994.5208,0 0,1816.0944 -5994.5208,0 0,-1816.0944 z" /><path
         id="path16"
         style="fill:#ffffff;fill-opacity:1;fill-rule:nonzero;stroke:none"
         d="m 4375.46,2995.13 c -2.82,0 -5.09,2.32 -5.09,5.1 l 0,390.78 c 0,2.8 -1.38,3.23 -3.05,0.99 l -185.11,-248.85 c -1.68,-2.23 -4.45,-2.26 -6.16,-0.03 l -190.42,249.74 c -1.73,2.25 -3.1,1.77 -3.1,-1.05 l 0,-391.58 c 0,-2.79 -2.29,-5.08 -5.09,-5.07 l -118.86,0.01 c -2.81,0 -5.25,2.64 -5.25,5.45 l 0,561.53 c -0.02,2.83 2.09,5.33 4.88,5.33 l 160.11,0 c 2.81,0 6.47,-2.07 8.14,-4.33 l 149.65,-203 c 1.68,-2.28 4.42,-2.29 6.1,-0.03 l 151.33,202.98 c 1.68,2.24 5.34,4.37 8.15,4.38 l 158.43,0 c 2.82,0.02 5.07,-2.28 5.07,-5.1 l -0.06,-562.4 c 0,-2.8 -2.27,-4.81 -5.12,-4.81 l -124.55,-0.04 0,0" /><path
         id="path18"
         style="fill:#ffffff;fill-opacity:1;fill-rule:nonzero;stroke:none"
         d="m 2554.51,2995.13 c -2.8,0 -5.1,2.31 -5.1,5.1 l 0.11,226.94 c 0,2.82 -2.19,5.14 -4.97,5.14 l -212.4,0.01 c -2.84,0 -5.13,-2.29 -5.13,-5.11 l -0.08,-226.98 c 0,-2.79 -2.47,-5.1 -5.27,-5.08 l -126.39,-0.02 c -2.8,0.02 -5.27,2.54 -5.28,5.36 l -0.18,440.7 c 0,2.83 -2.28,5.02 -5.09,5.02 l -83.59,0 c -2.81,0 -6.57,1.88 -8.39,4.03 l -95.1,112.98 c -1.82,2.14 -1.87,4.26 0.95,4.26 l 322.17,-0.03 c 2.83,0 6.1,-2.56 6.1,-5.4 l 0,-229.21 c 0,-2.8 2.44,-5.13 5.28,-5.13 l 212.4,-0.03 c 2.78,0 5.01,2.29 4.97,5.12 l 0,229.25 c 0,2.84 2.09,5.43 4.9,5.43 l 127.67,-0.04 c 2.8,0 5.08,-2.27 5.08,-5.09 l 0.12,-562.12 c 0,-2.79 -2.31,-5.1 -5.11,-5.1 l -127.67,0 0,0" /><path
         id="path20"
         style="fill:#ffffff;fill-opacity:1;fill-rule:nonzero;stroke:none"
         d="m 3474.18,3322.91 c 0,2.81 2.31,4.96 5.09,4.78 0,0 146.37,-13.53 146.37,65.57 0,56.34 -73.84,53.02 -114.99,53.02 l -100.89,-0.08 c -2.76,0 -4.93,-2.31 -4.93,-5.12 l 0,-440.69 c 0,-2.81 -1.59,-5.12 -4.41,-5.12 l -125.29,0 c -2.81,0 -5.12,2.31 -5.12,5.12 l 0,561.94 c 0,2.83 2.31,5.12 5.12,5.12 l 277.9,0.04 c 81.6,0 206.95,-52.44 206.95,-170.82 0,-99.26 -66.2,-139.78 -139.56,-162.38 l 154.32,-234.86 c 1.57,-2.35 0.55,-4.28 -2.25,-4.28 l -145.88,0 c -2.81,0 -6.31,1.95 -7.79,4.36 l -142.06,230.42 c -1.48,2.42 -2.69,6.66 -2.69,9.45 l 0.11,83.53 0,0" /><path
         id="path22"
         style="fill:#ffffff;fill-opacity:1;fill-rule:nonzero;stroke:none"
         d="m 5430.41,2993.12 c -170.32,0 -297.59,116.81 -297.59,287.37 0,174.42 131.28,289.89 299.91,289.89 75.08,0 156.05,-30.18 202.83,-79.57 1.42,-1.49 2.45,-6.12 0.44,-8.06 -1.99,-1.97 -83.22,-81.9 -83.22,-81.9 -2.01,-1.97 -5.95,-3.02 -7.8,-0.61 -1.88,2.44 -31.88,49.03 -107.53,49.03 -92.97,0 -159.32,-72.72 -159.32,-168.78 0,-99.16 64.81,-166.73 156.98,-166.73 49.73,0 89.59,20.83 113.62,50.67 1.24,1.54 4.98,3.34 7.35,1.19 2.04,-1.88 67.09,-62.19 84.73,-78.54 2.73,-2.56 1.89,-6.83 0.58,-8.21 -48.42,-52.85 -120.41,-85.75 -210.98,-85.75" /><path
         id="path24"
         style="fill:#ffffff;fill-opacity:1;fill-rule:nonzero;stroke:none"
         d="m 5939.54,2993.12 c -149.96,0 -243.5,91.98 -243.5,225.4 l 0,343.85 c 0,2.82 2.34,5.11 5.16,5.11 l 126.72,0 c 2.81,0 5.11,-2.29 5.11,-5.11 l 0.03,-327.71 c 0,-61.87 28.27,-119.68 107.34,-119.79 78.24,-0.12 107.32,55 107.32,114.69 l 0,332.14 c 0,2.81 2.92,5.77 5.73,5.78 l 329.04,-0.02 c 2.79,0.01 3.81,-1.92 2.03,-4.09 l -94.44,-112.66 c -1.84,-2.15 -5.6,-4.51 -8.43,-4.51 l -90.45,0 c -2.82,-0.02 -5.41,-1.99 -5.41,-4.83 l 0,-222.85 c 0,-133.42 -97.01,-225.4 -246.25,-225.4" /><path
         id="path26"
         style="fill:#ffffff;fill-opacity:1;fill-rule:nonzero;stroke:none"
         d="m 2049.91,3000.23 c 0,-2.77 -2.31,-5.08 -5.12,-5.08 l -57.07,0 c -2.81,0 -6.56,1.77 -8.33,3.97 l -59.65,73.03 c -1.79,2.16 -3.7,6.25 -3.72,9.06 l -0.06,328.67 c 0,2.79 -1.5,6.81 -3.34,8.93 l -20.33,23.36 c -1.85,2.1 -5.62,4.03 -8.47,4.03 l -165.36,0 c -2.8,0.03 -5.08,2.31 -5.08,5.13 l 0,111.02 c 0,2.82 2.28,5.1 5.08,5.1 l 219.42,0 c 2.78,0 6.56,-1.75 8.37,-3.92 l 100.49,-119.49 c 1.8,-2.17 3.3,-6.21 3.3,-9.04 l -0.13,-434.77 0,0" /><path
         id="path28"
         style="fill:#ffffff;fill-opacity:1;fill-rule:nonzero;stroke:none"
         d="m 6330.41,3435 c 0,2.83 1.46,6.87 3.29,9.03 l 100.47,119.51 c 1.81,2.16 5.61,3.92 8.39,3.92 l 219.4,0 c 2.81,0 5.11,-2.29 5.11,-5.1 l 0,-111.04 c 0,-2.81 -2.3,-5.09 -5.11,-5.12 l -165.33,0 c -2.84,0 -6.63,-1.93 -8.48,-4.04 l -20.31,-23.35 c -1.87,-2.12 -3.23,-6.14 -3.23,-8.95 l 0,-328.65 c -0.02,-2.83 -2.14,-6.89 -3.92,-9.07 l -59.66,-73.02 c -1.77,-2.18 -5.51,-3.96 -8.34,-3.96 l -57.06,0 c -2.79,0 -5.22,2.29 -5.22,5.09 l 0,434.75" /><path
         id="path30"
         style="fill:#ffffff;fill-opacity:1;fill-rule:nonzero;stroke:none"
         d="m 2917.23,3228.13 c 0,2.8 2.28,4.2 5.09,4.2 l 85.02,0 c 2.82,0 6.56,2.66 8.38,4.83 l 71.82,86.68 c 1.79,2.16 0.92,3.85 -1.86,3.85 l -163.39,0.01 c -2.8,0 -5.09,2.38 -5.09,5.18 l -0.05,108.19 c 0,2.84 2.31,5.13 5.13,5.13 l 255.97,0 c 2.81,0 5.1,2.58 5.1,5.37 l 0.26,110.62 c 0,2.81 -2.31,5.28 -5.11,5.28 l -389.69,0 c -2.82,0 -5.09,-2.47 -5.09,-5.28 l 0.08,-561.94 c 0,-2.8 2.3,-5.1 5.11,-5.1 l 389.34,0 c 2.81,0 5.1,2.3 5.1,5.1 l 0.19,107.09 c 0,2.79 -2.29,5.09 -5.09,5.09 l -256.11,0 c -2.79,0 -5.09,2.31 -5.09,5.12 l -0.02,110.58 0,0" /><path
         id="path32"
         style="fill:#ffffff;fill-opacity:1;fill-rule:nonzero;stroke:none"
         d="m 5155.47,2995.17 c 2.82,0 4.23,1.83 3.15,4.44 l -233.18,563.16 c -1.06,2.59 -4.23,4.72 -7.09,4.72 l -123.68,0 c -2.8,0 -5.97,-2.13 -7.06,-4.71 L 4552.04,2999.6 c -1.08,-2.6 0.31,-4.43 3.14,-4.43 l 139.81,0 c 2.81,0 5.95,1.84 6.98,4.47 l 151.48,386.69 c 1.03,2.61 2.71,2.61 3.69,-0.02 l 57.3,-149.38 c 1.03,-2.65 -0.44,-4.57 -3.24,-4.6 l -30.86,0 c -2.84,-0.04 -6.57,-2.56 -8.37,-4.74 l -71.42,-88 c -1.77,-2.17 -0.95,-3.96 1.86,-3.96 l 145.81,0 c 2.82,0 5.94,-2.17 6.93,-4.8 l 50.34,-131.18 c 1.02,-2.63 4.13,-4.48 6.97,-4.48 l 143.01,0 0,0" /><path
         id="path34"
         style="fill:#ffffff;fill-opacity:1;fill-rule:nonzero;stroke:none"
         d="m 6794.12,3511.85 5.75,0 c 8.19,0 13.3,0.33 15.27,0.96 1.97,0.62 3.54,1.73 4.68,3.31 1.15,1.58 1.74,3.37 1.74,5.37 0,1.96 -0.57,3.69 -1.67,5.2 -1.14,1.53 -2.73,2.62 -4.79,3.28 -2.08,0.66 -7.16,0.99 -15.23,0.99 l -5.75,0 0,-19.11 z m -14.22,-39.75 0,69.96 14.22,0 c 13.28,0 20.76,-0.08 22.34,-0.18 4.72,-0.4 8.37,-1.33 11,-2.79 2.58,-1.46 4.76,-3.71 6.53,-6.71 1.76,-3.03 2.63,-6.36 2.63,-10.03 0,-5.05 -1.65,-9.35 -4.97,-12.94 -3.3,-3.59 -7.92,-5.83 -13.9,-6.68 2.14,-0.8 3.78,-1.69 4.92,-2.64 1.13,-0.93 2.73,-2.73 4.73,-5.35 0.52,-0.69 2.23,-3.55 5.17,-8.53 l 8.26,-14.11 -17.54,0 -5.86,11.36 c -3.96,7.62 -7.24,12.43 -9.84,14.41 -2.57,1.99 -5.84,2.97 -9.79,2.97 l -3.68,0 0,-28.74 -14.22,0 0,0 z m 29.84,88.3 c -9.05,0 -17.73,-2.27 -26.04,-6.8 -8.33,-4.53 -14.89,-11.04 -19.7,-19.53 -4.78,-8.51 -7.17,-17.41 -7.17,-26.7 0,-9.24 2.34,-18.04 7.03,-26.4 4.65,-8.38 11.19,-14.92 19.55,-19.63 8.39,-4.71 17.16,-7.06 26.33,-7.06 9.25,0 18.04,2.35 26.4,7.06 8.35,4.71 14.88,11.25 19.59,19.63 4.69,8.36 7.03,17.16 7.03,26.4 0,9.29 -2.36,18.19 -7.18,26.7 -4.77,8.49 -11.36,15 -19.7,19.53 -8.35,4.53 -17.05,6.8 -26.14,6.8 l 0,0 z m -0.08,12.9 c 11.31,0 22.15,-2.83 32.54,-8.48 10.38,-5.66 18.56,-13.75 24.49,-24.3 5.91,-10.56 8.91,-21.6 8.91,-33.15 0,-11.47 -2.93,-22.41 -8.75,-32.82 -5.81,-10.42 -13.93,-18.53 -24.34,-24.36 -10.41,-5.82 -21.37,-8.73 -32.85,-8.73 -11.47,0 -22.41,2.91 -32.82,8.73 -10.41,5.83 -18.52,13.94 -24.34,24.36 -5.84,10.41 -8.75,21.35 -8.75,32.82 0,11.55 2.98,22.59 8.9,33.15 5.97,10.55 14.11,18.64 24.5,24.3 10.38,5.65 21.21,8.48 32.51,8.48 l 0,0" /><path
         id="path36"
         style="fill:#f47216;fill-opacity:1;fill-rule:nonzero;stroke:none"
         d="m 2091.25,2721.4 0,44.56 -174.33,0 0,-44.56 61.06,0 0,-171.58 52.21,0 0,171.58 61.06,0 0,0 z m 258.26,-171.58 0,216.14 -52.2,0 0,-81.81 -84.26,0 0,81.81 -52.2,0 0,-216.14 52.2,0 0,90.35 84.26,0 0,-90.35 52.2,0 0,0 z m 241.18,0 0,44.55 -100.45,0 0,44.89 89.76,0 0,41.83 -89.76,0 0,40.91 94.95,0 0,43.96 -145.32,0 0,-216.14 150.82,0 0,0 z m 392.58,29.93 -36.32,34.17 c -4.69,-6.52 -10.89,-11.8 -18.62,-15.85 -7.75,-4.09 -16.8,-6.13 -27.18,-6.13 -8.96,0 -17.19,1.64 -24.71,4.88 -7.56,3.26 -14.01,7.81 -19.39,13.6 -5.39,5.79 -9.62,12.77 -12.67,20.92 -3.07,8.14 -4.59,17.09 -4.59,26.86 0,9.55 1.52,18.37 4.59,26.4 3.05,8.05 7.31,15.01 12.81,20.92 5.5,5.9 12.05,10.53 19.69,13.89 7.63,3.35 16.04,5.03 25.19,5.03 8.35,0 16.48,-1.63 24.42,-4.88 7.94,-3.26 14.35,-8.25 19.23,-14.96 l 35.42,35.41 c -9.17,10.38 -21.12,18.28 -35.87,23.67 -14.76,5.39 -29.77,8.07 -45.03,8.07 -16.49,0 -31.86,-2.64 -46.09,-7.92 -14.26,-5.31 -26.67,-12.88 -37.26,-22.75 -10.58,-9.88 -18.87,-21.83 -24.88,-35.89 -6,-14.01 -9.01,-29.7 -9.01,-46.99 0,-16.91 2.95,-32.37 8.86,-46.42 5.91,-14.04 14.04,-26.08 24.43,-36.18 10.38,-10.05 22.63,-17.84 36.78,-23.35 14.15,-5.47 29.57,-8.22 46.25,-8.22 18.31,0 34.49,3.2 48.54,9.62 14.04,6.39 25.86,15.1 35.41,26.1 m 251.26,51.59 0,134.62 -52.21,0 0,-130.36 c 0,-5.9 -0.72,-11.49 -2.15,-16.79 -1.42,-5.29 -3.76,-10.02 -7.01,-14.18 -3.26,-4.19 -7.49,-7.48 -12.68,-9.94 -5.17,-2.44 -11.44,-3.67 -18.76,-3.67 -7.34,0 -13.59,1.23 -18.78,3.67 -5.19,2.46 -9.37,5.75 -12.52,9.94 -3.14,4.16 -5.49,8.89 -7.02,14.18 -1.52,5.3 -2.28,10.89 -2.28,16.79 l 0,130.36 -51.9,0 0,-134.62 c 0,-13.02 2.13,-24.91 6.41,-35.57 4.27,-10.69 10.37,-19.84 18.32,-27.47 7.93,-7.63 17.59,-13.6 29,-17.88 11.39,-4.25 24.2,-6.39 38.45,-6.39 14.05,0 26.83,2.14 38.32,6.39 11.52,4.28 21.32,10.25 29.45,17.88 8.15,7.63 14.4,16.78 18.79,27.47 4.37,10.66 6.57,22.55 6.57,35.57 m 241.47,90.06 0,44.56 -174.31,0 0,-44.56 61.05,0 0,-171.58 52.2,0 0,171.58 61.06,0 0,0 z m 223.17,0 0,44.56 -174.32,0 0,-44.56 61.05,0 0,-171.58 52.22,0 0,171.58 61.05,0 0,0 z m 122.09,44.56 -52.5,0 0,-216.14 52.5,0 0,216.14 z m 286.97,-216.14 0,216.14 -50.67,0 1.21,-141.04 -0.91,0 -86.69,141.04 -59.55,0 0,-216.14 50.69,0 -1.23,141.36 0.92,0 87.01,-141.36 59.22,0 0,0 z m 282.39,13.13 0,114.49 -89.15,0 0,-42.14 41.22,0 0,-39.38 c -4.69,-2.03 -9.77,-3.51 -15.24,-4.43 -5.52,-0.91 -11.31,-1.36 -17.41,-1.36 -10.59,0 -20.01,1.66 -28.26,5.03 -8.24,3.35 -15.16,8.03 -20.74,14.03 -5.61,5.99 -9.84,13.18 -12.68,21.54 -2.85,8.32 -4.28,17.5 -4.28,27.47 0,9.78 1.56,18.77 4.73,27.03 3.16,8.23 7.6,15.34 13.28,21.36 5.69,5.99 12.42,10.68 20.14,14.04 7.76,3.36 16.2,5.04 25.36,5.04 10.56,0 20.03,-1.88 28.4,-5.66 8.33,-3.76 15.04,-8.59 20.15,-14.49 l 32.96,37.53 c -9.14,8.75 -21.06,15.75 -35.73,20.92 -14.63,5.19 -30.52,7.78 -47.6,7.78 -16.51,0 -31.88,-2.64 -46.12,-7.92 -14.23,-5.31 -26.68,-12.88 -37.26,-22.75 -10.58,-9.88 -18.86,-21.83 -24.86,-35.89 -6.01,-14.01 -8.99,-29.7 -8.99,-46.99 0,-17.09 2.93,-32.61 8.83,-46.55 5.9,-13.97 14.1,-25.9 24.57,-35.88 10.49,-9.98 23,-17.72 37.57,-23.2 14.55,-5.48 30.48,-8.25 47.77,-8.25 16.67,0 32.11,1.71 46.27,5.19 14.14,3.46 26.48,7.94 37.07,13.44 m 400.84,16.8 -36.35,34.17 c -4.66,-6.52 -10.87,-11.8 -18.6,-15.85 -7.75,-4.09 -16.79,-6.13 -27.17,-6.13 -8.96,0 -17.21,1.64 -24.71,4.88 -7.54,3.26 -14.01,7.81 -19.4,13.6 -5.39,5.79 -9.61,12.77 -12.68,20.92 -3.04,8.14 -4.57,17.09 -4.57,26.86 0,9.55 1.53,18.37 4.57,26.4 3.07,8.05 7.34,15.01 12.85,20.92 5.48,5.9 12.05,10.53 19.66,13.89 7.63,3.35 16.04,5.03 25.19,5.03 8.34,0 16.5,-1.63 24.43,-4.88 7.95,-3.26 14.35,-8.25 19.24,-14.96 l 35.41,35.41 c -9.17,10.38 -21.14,18.28 -35.87,23.67 -14.76,5.39 -29.76,8.07 -45.04,8.07 -16.48,0 -31.85,-2.64 -46.09,-7.92 -14.25,-5.31 -26.67,-12.88 -37.25,-22.75 -10.58,-9.88 -18.86,-21.83 -24.88,-35.89 -6.01,-14.01 -9,-29.7 -9,-46.99 0,-16.91 2.94,-32.37 8.84,-46.42 5.92,-14.04 14.06,-26.08 24.44,-36.18 10.37,-10.05 22.63,-17.84 36.77,-23.35 14.17,-5.47 29.57,-8.22 46.26,-8.22 18.32,0 34.49,3.2 48.53,9.62 14.05,6.39 25.86,15.1 35.42,26.1 m 280.87,125.92 c -5.92,13.94 -14.11,25.78 -24.58,35.57 -10.5,9.75 -22.96,17.28 -37.41,22.59 -14.44,5.28 -30.12,7.92 -47,7.92 -16.9,0 -32.51,-2.64 -46.87,-7.92 -14.35,-5.31 -26.77,-12.84 -37.24,-22.59 -10.48,-9.79 -18.66,-21.63 -24.57,-35.57 -5.91,-13.93 -8.86,-29.57 -8.86,-46.86 0,-17.09 2.95,-32.73 8.86,-46.87 5.91,-14.16 14.09,-26.24 24.57,-36.34 10.47,-10.05 22.89,-17.84 37.24,-23.35 14.36,-5.47 29.97,-8.22 46.87,-8.22 16.88,0 32.56,2.75 47,8.22 14.45,5.51 26.91,13.3 37.41,23.35 10.47,10.1 18.66,22.18 24.58,36.34 5.91,14.14 8.85,29.78 8.85,46.87 0,17.29 -2.94,32.93 -8.85,46.86 m -51.59,-73.89 c -3.06,-8.24 -7.34,-15.3 -12.82,-21.2 -5.51,-5.91 -12.02,-10.54 -19.53,-13.89 -7.55,-3.36 -15.89,-5.04 -25.05,-5.04 -9.17,0 -17.51,1.68 -25.02,5.04 -7.53,3.35 -14.01,7.98 -19.4,13.89 -5.41,5.9 -9.61,12.96 -12.67,21.2 -3.03,8.26 -4.58,17.25 -4.58,27.03 0,9.35 1.48,18.12 4.45,26.24 2.94,8.16 7.16,15.12 12.65,20.91 5.49,5.82 12.02,10.4 19.55,13.76 7.51,3.36 15.85,5.03 25.02,5.03 9.16,0 17.54,-1.67 25.18,-5.03 7.64,-3.36 14.16,-7.94 19.55,-13.76 5.39,-5.79 9.61,-12.75 12.67,-20.91 3.04,-8.12 4.59,-16.89 4.59,-26.24 0,-9.78 -1.55,-18.77 -4.59,-27.03 m 388.02,-81.96 0,216.14 -75.51,0 -47.06,-138.58 -1.22,0 -49.22,138.58 -74.29,0 0,-216.14 49.15,0 -1.22,152.97 0.94,0 54.63,-152.97 36.64,0 56.16,152.97 0.94,0 -1.23,-152.97 51.29,0 0,0 z m 247.41,180.88 c -4.38,8.44 -10.37,15.26 -18.02,20.47 -7.61,5.17 -16.58,8.95 -26.85,11.28 -10.29,2.35 -21.31,3.51 -33.13,3.51 l -79.37,0 0,-216.14 52.2,0 0,81.52 25.96,0 c 11.18,0 21.97,1.2 32.37,3.67 10.35,2.41 19.53,6.28 27.46,11.58 7.93,5.3 14.25,12.26 18.95,20.92 4.68,8.66 6.99,19.28 6.99,31.9 0,12.41 -2.17,22.84 -6.56,31.29 m -48.67,-44.28 c -2.05,-3.34 -4.86,-6.05 -8.4,-8.06 -3.57,-2.04 -7.61,-3.47 -12.06,-4.3 -4.49,-0.8 -9.17,-1.2 -14.06,-1.2 l -21.98,0 0,50.98 22.89,0 c 4.7,0 9.23,-0.33 13.61,-0.92 4.36,-0.6 8.29,-1.84 11.75,-3.67 3.44,-1.83 6.2,-4.38 8.25,-7.63 2.02,-3.26 3.03,-7.42 3.03,-12.52 0,-5.08 -1.01,-9.32 -3.03,-12.68 m 318.72,-136.6 -89.79,216.14 -50.65,0 -90.69,-216.14 56.79,0 15.88,42.43 83.65,0 16.8,-42.43 58.01,0 0,0 z m -89.15,84.27 -54.36,0 27.48,74.18 26.88,-74.18 0,0 z m 349.55,-84.27 0,216.14 -50.7,0 1.23,-141.04 -0.9,0 -86.71,141.04 -59.54,0 0,-216.14 50.67,0 -1.21,141.36 0.93,0 87,-141.36 59.23,0 0,0 z m 278.39,216.14 -61.04,0 -46.09,-79.97 -46.1,79.97 -63.2,0 81.21,-124.56 0,-91.58 52.19,0 0,91.58 83.03,124.56 0,0" /><path
         id="path38"
         style="fill:#f47216;fill-opacity:1;fill-rule:nonzero;stroke:none"
         d="m 6530.91,2735.51 3.4,0 c 4.83,0 7.85,0.17 9.02,0.54 1.15,0.37 2.08,1.04 2.75,1.96 0.67,0.93 1.03,1.99 1.03,3.16 0,1.17 -0.34,2.18 -0.99,3.08 -0.68,0.91 -1.6,1.55 -2.82,1.94 -1.22,0.39 -4.22,0.58 -8.99,0.58 l -3.4,0 0,-11.26 z m -8.39,-23.47 0,41.28 8.39,0 c 7.84,0 12.25,-0.06 13.19,-0.11 2.78,-0.23 4.94,-0.79 6.49,-1.64 1.52,-0.86 2.8,-2.2 3.85,-3.96 1.03,-1.79 1.55,-3.76 1.55,-5.93 0,-2.97 -0.98,-5.51 -2.94,-7.63 -1.94,-2.11 -4.66,-3.44 -8.19,-3.93 1.26,-0.47 2.22,-1.01 2.9,-1.57 0.67,-0.53 1.62,-1.61 2.79,-3.14 0.31,-0.42 1.32,-2.11 3.06,-5.04 l 4.86,-8.33 -10.35,0 -3.46,6.7 c -2.32,4.5 -4.26,7.33 -5.8,8.51 -1.51,1.17 -3.44,1.75 -5.78,1.75 l -2.17,0 0,-16.96 -8.39,0 0,0 z m 17.61,52.1 c -5.34,0 -10.46,-1.34 -15.36,-4.01 -4.92,-2.68 -8.78,-6.52 -11.62,-11.54 -2.81,-5.01 -4.23,-10.26 -4.23,-15.74 0,-5.45 1.38,-10.63 4.15,-15.58 2.74,-4.94 6.6,-8.78 11.53,-11.58 4.96,-2.77 10.13,-4.16 15.53,-4.16 5.46,0 10.64,1.39 15.58,4.16 4.93,2.8 8.78,6.64 11.56,11.58 2.76,4.95 4.14,10.13 4.14,15.58 0,5.48 -1.39,10.73 -4.24,15.74 -2.81,5.02 -6.7,8.86 -11.62,11.54 -4.91,2.67 -10.06,4.01 -15.42,4.01 l 0,0 z m -0.05,7.61 c 6.67,0 13.08,-1.67 19.2,-5 6.12,-3.35 10.95,-8.12 14.45,-14.34 3.49,-6.23 5.26,-12.74 5.26,-19.56 0,-6.77 -1.73,-13.22 -5.17,-19.35 -3.41,-6.15 -8.22,-10.95 -14.35,-14.37 -6.14,-3.44 -12.62,-5.16 -19.39,-5.16 -6.76,0 -13.22,1.72 -19.35,5.16 -6.15,3.42 -10.94,8.22 -14.36,14.37 -3.45,6.13 -5.16,12.58 -5.16,19.35 0,6.82 1.74,13.33 5.25,19.56 3.51,6.23 8.33,10.99 14.45,14.34 6.13,3.33 12.51,5 19.17,5 l 0,0" /></g></g></svg>