<?xml version="1.0" encoding="UTF-8" standalone="no"?>
<!-- Generator: Adobe Illustrator 16.0.0, SVG Export Plug-In . SVG Version: 6.00 Build 0)  -->

<svg
   xmlns:dc="http://purl.org/dc/elements/1.1/"
   xmlns:cc="http://creativecommons.org/ns#"
   xmlns:rdf="http://www.w3.org/1999/02/22-rdf-syntax-ns#"
   xmlns:svg="http://www.w3.org/2000/svg"
   xmlns="http://www.w3.org/2000/svg"
   xmlns:sodipodi="http://sodipodi.sourceforge.net/DTD/sodipodi-0.dtd"
   xmlns:inkscape="http://www.inkscape.org/namespaces/inkscape"
   version="1.1"
   id="Capa_1"
   x="0px"
   y="0px"
   width="90px"
   height="90px"
   viewBox="0 0 90 90"
   style="enable-background:new 0 0 90 90; fill:#fff"
   xml:space="preserve"
   inkscape:version="0.91 r13725"
   sodipodi:docname="youtube-logo.svg"><metadata
     id="metadata10"><rdf:RDF><cc:Work
         rdf:about=""><dc:format>image/svg+xml</dc:format><dc:type
           rdf:resource="http://purl.org/dc/dcmitype/StillImage" /></cc:Work></rdf:RDF></metadata><defs
     id="defs8" /><sodipodi:namedview
     pagecolor="#ffffff"
     bordercolor="#666666"
     borderopacity="1"
     objecttolerance="10"
     gridtolerance="10"
     guidetolerance="10"
     inkscape:pageopacity="0"
     inkscape:pageshadow="2"
     inkscape:window-width="1417"
     inkscape:window-height="959"
     id="namedview6"
     showgrid="false"
     inkscape:zoom="2.6222222"
     inkscape:cx="-29.11666"
     inkscape:cy="33.177966"
     inkscape:window-x="73"
     inkscape:window-y="34"
     inkscape:window-maximized="0"
     inkscape:current-layer="g3" /><g
     id="g3"><path
       id="YouTube"
       d="m 70.939,65.832 -4.939,0 0.023,-2.869 c 0,-1.275 1.047,-2.318 2.326,-2.318 l 0.315,0 c 1.282,0 2.332,1.043 2.332,2.318 z M 52.413,59.684 c -1.253,0 -2.278,0.842 -2.278,1.873 l 0,13.953 c 0,1.029 1.025,1.869 2.278,1.869 1.258,0 2.284,-0.84 2.284,-1.869 l 0,-13.953 c 0,-1.032 -1.026,-1.873 -2.284,-1.873 z m 30.087,-7.805 0,26.544 C 82.5,84.79 76.979,90 70.23,90 L 19.771,90 C 13.02,90 7.5,84.79 7.5,78.423 l 0,-26.544 c 0,-6.367 5.52,-11.578 12.271,-11.578 l 50.459,0 c 6.749,0 12.27,5.211 12.27,11.578 z m -59.363,29.426 -0.004,-27.961 6.255,0.002 0,-4.143 -16.674,-0.025 0,4.073 5.205,0.015 0,28.039 z m 18.75,-23.796 -5.215,0 0,14.931 c 0,2.16 0.131,3.24 -0.008,3.621 -0.424,1.158 -2.33,2.388 -3.073,0.125 -0.126,-0.396 -0.015,-1.591 -0.017,-3.643 l -0.021,-15.034 -5.186,0 0.016,14.798 c 0.004,2.268 -0.051,3.959 0.018,4.729 0.127,1.357 0.082,2.939 1.341,3.843 2.346,1.69 6.843,-0.252 7.968,-2.668 l -0.01,3.083 4.188,0.005 z M 58.57,74.607 58.559,62.18 c -0.004,-4.736 -3.547,-7.572 -8.356,-3.74 l 0.021,-9.239 -5.209,0.008 -0.025,31.89 4.284,-0.062 0.39,-1.986 c 5.473,5.021 8.914,1.58 8.906,-4.444 z m 16.321,-1.647 -3.91,0.021 c -0.002,0.155 -0.008,0.334 -0.01,0.529 l 0,2.182 c 0,1.168 -0.965,2.119 -2.137,2.119 l -0.766,0 c -1.174,0 -2.139,-0.951 -2.139,-2.119 l 0,-0.242 0,-2.4 0,-3.097 8.954,0 0,-3.37 c 0,-2.463 -0.063,-4.925 -0.267,-6.333 -0.641,-4.454 -6.893,-5.161 -10.051,-2.881 -0.991,0.712 -1.748,1.665 -2.188,2.945 -0.444,1.281 -0.665,3.031 -0.665,5.254 l 0,7.41 c 0.002,12.318 14.964,10.577 13.179,-0.018 z"
       style="fill:#ffffff"
       inkscape:connector-curvature="0"
       sodipodi:nodetypes="cccssccsssssssssssssssscccccccccccscccccccccccccccccccccccccssssccccscccsc" /><path
       style="fill:#ffffff;fill-opacity:1;stroke:#000000;stroke-width:0;stroke-linecap:round;stroke-linejoin:round;stroke-miterlimit:4;stroke-dasharray:none;stroke-dashoffset:187.99998474;stroke-opacity:1;opacity:0"
       d="m 41.630354,34.770413 c -1.677475,-0.394403 -3.273302,-2.158924 -3.833268,-4.238482 -0.278967,-1.036001 -0.385771,-4.331383 -0.300211,-9.262817 0.109481,-6.310124 0.246835,-7.864435 0.781957,-8.848688 2.862814,-5.265587 10.601186,-4.2873935 12.064786,1.525087 0.554551,2.202322 0.56462,13.322164 0.01439,15.887815 -0.892566,4.161894 -4.160989,6.010786 -8.72765,4.937085 z m 4.016084,-4.359011 c 0.93013,-0.93013 0.936055,-0.98335 0.936055,-8.407165 0,-7.423814 -0.0059,-7.477035 -0.936055,-8.407165 -1.142047,-1.142047 -1.714894,-1.169706 -3.016753,-0.145664 l -1.004819,0.79039 0,7.6702 c 0,7.350312 0.03458,7.70701 0.829188,8.55283 1.065071,1.133716 2.021243,1.117715 3.192384,-0.05343 z"
       id="path4144"
       inkscape:connector-curvature="0" /><path
       style="opacity:0;fill:#ffffff;fill-opacity:1;stroke:#000000;stroke-width:0;stroke-linecap:round;stroke-linejoin:round;stroke-miterlimit:4;stroke-dasharray:none;stroke-dashoffset:187.99998474;stroke-opacity:1"
       d="m 41.630354,34.770413 c -1.677475,-0.394403 -3.273302,-2.158924 -3.833268,-4.238482 -0.278967,-1.036001 -0.385771,-4.331383 -0.300211,-9.262817 0.109481,-6.310124 0.246835,-7.864435 0.781957,-8.848688 2.862814,-5.265587 10.601186,-4.2873935 12.064786,1.525087 0.554551,2.202322 0.56462,13.322164 0.01439,15.887815 -0.892566,4.161894 -4.160989,6.010786 -8.72765,4.937085 z m 4.016084,-4.359011 c 0.93013,-0.93013 0.936055,-0.98335 0.936055,-8.407165 0,-7.423814 -0.0059,-7.477035 -0.936055,-8.407165 -1.142047,-1.142047 -1.714894,-1.169706 -3.016753,-0.145664 l -1.004819,0.79039 0,7.6702 c 0,7.350312 0.03458,7.70701 0.829188,8.55283 1.065071,1.133716 2.021243,1.117715 3.192384,-0.05343 z"
       id="path4146"
       inkscape:connector-curvature="0" /><path
       style="opacity:0;fill:#ffffff;fill-opacity:1;stroke:#000000;stroke-width:0;stroke-linecap:round;stroke-linejoin:round;stroke-miterlimit:4;stroke-dasharray:none;stroke-dashoffset:187.99998474;stroke-opacity:1"
       d="m 41.630354,34.770413 c -1.677475,-0.394403 -3.273302,-2.158924 -3.833268,-4.238482 -0.278967,-1.036001 -0.385771,-4.331383 -0.300211,-9.262817 0.109481,-6.310124 0.246835,-7.864435 0.781957,-8.848688 2.862814,-5.265587 10.601186,-4.2873935 12.064786,1.525087 0.554551,2.202322 0.56462,13.322164 0.01439,15.887815 -0.892566,4.161894 -4.160989,6.010786 -8.72765,4.937085 z m 4.016084,-4.359011 c 0.93013,-0.93013 0.936055,-0.98335 0.936055,-8.407165 0,-7.423814 -0.0059,-7.477035 -0.936055,-8.407165 -1.142047,-1.142047 -1.714894,-1.169706 -3.016753,-0.145664 l -1.004819,0.79039 0,7.6702 c 0,7.350312 0.03458,7.70701 0.829188,8.55283 1.065071,1.133716 2.021243,1.117715 3.192384,-0.05343 z"
       id="path4152"
       inkscape:connector-curvature="0" /><path
       style="opacity:0;fill:#ffffff;fill-opacity:1;stroke:#000000;stroke-width:0;stroke-linecap:round;stroke-linejoin:round;stroke-miterlimit:4;stroke-dasharray:none;stroke-dashoffset:187.99998474;stroke-opacity:1"
       d="m 25.989273,25.867098 0,-9.293919 -3.432203,-8.1070773 c -1.887712,-4.4588925 -3.432204,-8.178215 -3.432204,-8.26516099 0,-0.0869459 1.240658,-0.10766288 2.757017,-0.0460376 L 24.6389,0.26694915 26.340192,6.2768605 c 0.935711,3.3054513 1.813411,5.8796035 1.950445,5.7203385 0.137034,-0.159264 0.986716,-2.906627 1.888182,-6.1052498 l 1.639028,-5.81567801 2.800487,0 2.800488,0 -0.715846,1.81144071 C 36.309261,2.8840042 34.853078,6.5255492 33.467015,9.980034 l -2.520115,6.280882 0,9.45005 0,9.450051 -2.478813,0 -2.478814,0 0,-9.293919 z"
       id="path4154"
       inkscape:connector-curvature="0" /><path
       style="opacity:0;fill:#ffffff;fill-opacity:1;stroke:#000000;stroke-width:0;stroke-linecap:round;stroke-linejoin:round;stroke-miterlimit:4;stroke-dasharray:none;stroke-dashoffset:187.99998474;stroke-opacity:1"
       d="m 25.989273,25.867098 0,-9.293919 -3.432203,-8.1070773 c -1.887712,-4.4588925 -3.432204,-8.178215 -3.432204,-8.26516099 0,-0.0869459 1.240658,-0.10766288 2.757017,-0.0460376 L 24.6389,0.26694915 26.340192,6.2768605 c 0.935711,3.3054513 1.813411,5.8796035 1.950445,5.7203385 0.137034,-0.159264 0.986716,-2.906627 1.888182,-6.1052498 l 1.639028,-5.81567801 2.800487,0 2.800488,0 -0.715846,1.81144071 C 36.309261,2.8840042 34.853078,6.5255492 33.467015,9.980034 l -2.520115,6.280882 0,9.45005 0,9.450051 -2.478813,0 -2.478814,0 0,-9.293919 z"
       id="path4156"
       inkscape:connector-curvature="0" /><path
       id="YouTube-3"
       d="m 56.745499,33.113356 c 0.269,0.654 0.687,1.184 1.254,1.584 0.56,0.394 1.276,0.592 2.134,0.592 0.752,0 1.418,-0.203 1.998,-0.622 0.578,-0.417 1.065,-1.04 1.463,-1.871 l -0.099,2.046 5.813,0 0,-11.961 0,-12.76 -4.576,0 0,19.24 c 0,1.042 -0.858,1.895 -1.907,1.895 -1.043,0 -1.904,-0.853 -1.904,-1.895 l 0,-19.24 -4.776,0 0,16.674 c 0,2.124 0.039,3.54 0.102,4.258 0.065,0.713 0.229,1.397 0.498,2.06 z m -17.616,-13.962 c 0,-2.373 0.198,-4.226 0.591,-5.562 0.396,-1.331 1.107,-2.401 2.137,-3.208 1.027,-0.8110001 2.342,-1.2170001 3.941,-1.2170001 1.345,0 2.497,0.264 3.459,0.781 0.967,0.5200001 1.713,1.1950001 2.23,2.0280001 0.527,0.836 0.885,1.695 1.076,2.574 0.195,0.891 0.291,2.235 0.291,4.048 l 0,6.252 c 0,2.293 -0.092,3.98 -0.271,5.051 -0.177,1.074 -0.557,2.07 -1.146,3.004 -0.58,0.924 -1.329,1.615 -2.237,2.056 -0.918,0.445 -1.968,0.663 -3.154,0.663 -1.325,0 -2.441,-0.183 -3.361,-0.565 -0.923,-0.38 -1.636,-0.953 -2.144,-1.714 -0.513,-0.762 -0.874,-1.69 -1.092,-2.772 -0.219,-1.081 -0.323,-2.707 -0.323,-4.874 z m 4.553,9.82 c 0,1.4 1.042,2.543 2.311,2.543 1.27,0 2.308,-1.143 2.308,-2.543 l 0,-13.16 c 0,-1.398 -1.038,-2.541 -2.308,-2.541 -1.269,0 -2.311,1.143 -2.311,2.541 z m -16.087998,6.645 5.484,0 0.006,-18.96 6.479998,-16.24199992 -5.997998,0 -3.445,12.06399992 -3.494,-12.09699992 -5.936,0 6.894,16.28399992 z"
       style="fill:#ffffff"
       inkscape:connector-curvature="0"
       sodipodi:nodetypes="cccscccccccsssccscccccscccsscccsccccscssssscscccccccc" /></g></svg>